<svg width="27" height="24" viewBox="0 0 27 24" fill="none" xmlns="http://www.w3.org/2000/svg">
    <path fill-rule="evenodd" clip-rule="evenodd" d="M16.8415 2.20287L26.2639 18.5558C26.4713 19.0439 26.562 19.4408 26.588 19.8532C26.6398 20.8165 26.3028 21.7529 25.6418 22.4735C24.9808 23.1916 24.0865 23.6155 23.1145 23.6668H4.13989C3.73811 23.6424 3.33632 23.5512 2.96046 23.4099C1.08115 22.6521 0.173891 20.5198 0.938577 18.6714L10.4259 2.19131C10.7499 1.612 11.2424 1.11233 11.8516 0.791211C13.6142 -0.186293 15.8564 0.455957 16.8415 2.20287ZM14.7568 12.98C14.7568 13.5966 14.2513 14.1116 13.6292 14.1116C13.0071 14.1116 12.4886 13.5966 12.4886 12.98V9.34615C12.4886 8.72831 13.0071 8.22864 13.6292 8.22864C14.2513 8.22864 14.7568 8.72831 14.7568 9.34615V12.98ZM13.6292 18.5044C13.0071 18.5044 12.4886 17.9894 12.4886 17.3741C12.4886 16.7562 13.0071 16.2424 13.6292 16.2424C14.2513 16.2424 14.7568 16.7447 14.7568 17.36C14.7568 17.9894 14.2513 18.5044 13.6292 18.5044Z" fill="url(#paint0_linear)"/>
    <defs>
        <linearGradient id="paint0_linear" x1="1.18575" y1="12.0002" x2="27.1117" y2="12.0002" gradientUnits="userSpaceOnUse">
            <stop stop-color="#FAAB19"/>
            <stop offset="1" stop-color="#FECD0A"/>
        </linearGradient>
    </defs>
</svg>
