<svg width="26" height="26" viewBox="0 0 20 20" fill="none" xmlns="http://www.w3.org/2000/svg">
    <g clip-path="url(#clip0)">
        <path d="M10.5063 10.0513C10.6587 10.0513 10.8047 10.0005 10.957 9.84814L13.0835 7.79785C13.1914 7.68994 13.2549 7.56934 13.2549 7.41699C13.2549 7.11865 13.0137 6.90283 12.7217 6.90283C12.5757 6.90283 12.4297 6.96631 12.3281 7.08057L11.4395 8.02002L11.0332 8.48975L11.0967 7.55029V0.974121C11.0967 0.656738 10.8301 0.390137 10.5063 0.390137C10.1763 0.390137 9.90967 0.656738 9.90967 0.974121V7.55029L9.97314 8.48975L9.56689 8.02002L8.67822 7.08057C8.57666 6.96631 8.42432 6.90283 8.27832 6.90283C7.98633 6.90283 7.75146 7.11865 7.75146 7.41699C7.75146 7.56934 7.81494 7.68994 7.92285 7.79785L10.0557 9.84814C10.208 10.0005 10.3477 10.0513 10.5063 10.0513ZM6.84375 14.1582H14.1562C15.5337 14.1582 16.2446 13.4473 16.2446 12.0889V5.84912C16.2446 4.49072 15.5337 3.77979 14.1562 3.77979H12.4424V5.04297H14.0737C14.6514 5.04297 14.9814 5.34766 14.9814 5.95703V11.9746C14.9814 12.584 14.6514 12.8887 14.0737 12.8887H6.92627C6.34229 12.8887 6.01855 12.584 6.01855 11.9746V5.95703C6.01855 5.34766 6.34229 5.04297 6.92627 5.04297H8.57666V3.77979H6.84375C5.47266 3.77979 4.75537 4.48438 4.75537 5.84912V12.0889C4.75537 13.4473 5.47266 14.1582 6.84375 14.1582Z" fill="#777777"/>
    </g>
    <defs>
        <clipPath id="clip0">
            <rect width="20" height="20" fill="white"/>
        </clipPath>
    </defs>
</svg>
