<svg width="28" height="28" viewBox="0 0 16 20" fill="none" xmlns="http://www.w3.org/2000/svg">
    <path d="M9 5C9.53043 5 10.0391 5.21071 10.4142 5.58579C10.7893 5.96086 11 6.46957 11 7V19L6 16L1 19V7C1 6.46957 1.21071 5.96086 1.58579 5.58579C1.96086 5.21071 2.46957 5 3 5H9Z" stroke="#777777" stroke-width="1.5" stroke-linecap="round" stroke-linejoin="round"/>
    <path d="M5.26489 2C5.44068 1.69553 5.69362 1.44278 5.99822 1.26721C6.30282 1.09165 6.64832 0.999484 6.99989 1H12.9999C13.5303 1 14.039 1.21072 14.4141 1.58579C14.7892 1.96086 14.9999 2.46957 14.9999 3V15L13.9999 14.4" stroke="#777777" stroke-width="1.5" stroke-linecap="round" stroke-linejoin="round"/>
</svg>
