<svg width="28" height="28" viewBox="0 0 24 24" fill="none" xmlns="http://www.w3.org/2000/svg">
    <path d="M12 13.5C15.5373 13.5 18.5 14.9268 18.5 18C18.5 19.5322 17.5726 20.5 16.3125 20.5H7.68752C6.37966 20.5 5.50002 19.7861 5.50002 18.25C5.50002 14.9865 8.42408 13.5 12 13.5ZM4.7785 13.5005C5.1603 13.5146 5.47595 13.817 5.49871 14.2062C5.5229 14.6197 5.2073 14.9745 4.79379 14.9987C2.85246 15.1123 1.5 15.9922 1.5 17.5C1.5 17.875 1.66667 18 2 18H3.25L3.32223 18.0034C3.70255 18.0398 4 18.3601 4 18.75C4 19.1642 3.66421 19.5 3.25 19.5H2L1.90199 19.4981C0.861952 19.4577 0 18.7727 0 17.5C0 15.0039 2.07263 13.6553 4.7062 13.5013L4.7785 13.5005ZM19.2215 13.5005L19.2938 13.5013C21.9274 13.6553 24 15.0039 24 17.5C24 18.7727 23.138 19.4577 22.098 19.4981L22 19.5H20.75C20.3358 19.5 20 19.1642 20 18.75C20 18.3601 20.2974 18.0398 20.6778 18.0034L20.75 18H22C22.3333 18 22.5 17.875 22.5 17.5C22.5 15.9922 21.1475 15.1123 19.2062 14.9987C18.7927 14.9745 18.4771 14.6197 18.5013 14.2062C18.5241 13.817 18.8397 13.5146 19.2215 13.5005ZM12 15C9.14503 15 7.00002 16.0904 7.00002 18.25C7.00002 18.8257 7.12268 18.9754 7.55531 18.997L7.68752 19H16.3125C16.7295 19 17 18.7177 17 18C17 16.0539 14.8117 15 12 15ZM5.99982 5C6.10578 5 6.21126 5.00473 6.31603 5.01414C6.72859 5.05118 7.033 5.41566 6.99595 5.82821C6.9589 6.24076 6.59443 6.54517 6.18188 6.50812C6.12169 6.50272 6.06098 6.5 5.99982 6.5C4.89526 6.5 3.99983 7.39543 3.99983 8.5C3.99983 9.60456 4.89526 10.5 5.99982 10.5C6.11996 10.5 6.23841 10.4895 6.35438 10.4688C6.41644 10.4577 6.47775 10.4437 6.53817 10.4269L6.61744 10.408C6.99325 10.3392 7.36682 10.5663 7.47318 10.9413C7.58618 11.3398 7.35474 11.7545 6.95624 11.8675L6.78032 11.9125L6.61787 11.9455C6.41502 11.9817 6.20841 12 5.99982 12C4.06683 12 2.49983 10.433 2.49983 8.5C2.49983 6.567 4.06683 5 5.99982 5ZM18.0018 5C19.9348 5 21.5018 6.567 21.5018 8.5C21.5018 10.433 19.9348 12 18.0018 12C17.7932 12 17.5866 11.9817 17.3838 11.9455L17.2213 11.9125L17.0454 11.8675C16.6469 11.7545 16.4155 11.3398 16.5285 10.9413C16.6348 10.5663 17.0084 10.3392 17.3842 10.408L17.4635 10.4269C17.5239 10.4437 17.5852 10.4577 17.6473 10.4688C17.7632 10.4895 17.8817 10.5 18.0018 10.5C19.1064 10.5 20.0018 9.60456 20.0018 8.5C20.0018 7.39543 19.1064 6.5 18.0018 6.5C17.9407 6.5 17.8799 6.50272 17.8198 6.50812C17.4072 6.54517 17.0427 6.24076 17.0057 5.82821C16.9686 5.41566 17.273 5.05118 17.6856 5.01414C17.7904 5.00473 17.8959 5 18.0018 5ZM12 4C14.2091 4 16 5.79086 16 8C16 10.2091 14.2091 12 12 12C9.79087 12 8.00002 10.2091 8.00002 8C8.00002 5.79086 9.79087 4 12 4ZM12 5.5C10.6193 5.5 9.50001 6.61929 9.50001 8C9.50001 9.38071 10.6193 10.5 12 10.5C13.3807 10.5 14.5 9.38071 14.5 8C14.5 6.61929 13.3807 5.5 12 5.5Z" fill="#777777"/>
</svg>
